# Blender v2.77 (sub 0) OBJ File: 'building2.blend'
# www.blender.org
mtllib building2.mtl
o Cube
v 1.000000 -0.100000 1.000000
v 1.000000 -0.100000 20.900000
v -1.000000 -0.100000 20.900000
v -1.000000 -0.100000 1.000000
v 1.000000 -0.000000 1.000000
v 0.999999 -0.000000 20.900002
v -1.000000 -0.000000 20.900000
v -1.000000 -0.000000 1.000000
v 1.000000 -0.100000 -1.000000
v -0.999999 -0.100000 -1.000000
v 1.000001 0.000000 -1.000000
v -0.999999 0.000000 -1.000000
v 1.000001 -0.099999 -20.900000
v -0.999999 -0.099999 -20.900002
v 1.000001 0.000001 -20.900000
v -0.999999 0.000001 -20.900000
v 1.000001 -0.099999 -21.000000
v -0.999998 -0.099999 -21.000000
v 1.000002 0.000001 -21.000000
v -0.999999 0.000001 -21.000000
v 0.999999 -0.100000 21.000000
v -1.000001 -0.100000 21.000000
v 0.999999 -0.000000 21.000000
v -1.000001 -0.000000 21.000000
v -20.900000 -0.100001 20.900000
v -20.900000 -0.100001 0.999999
v -20.900002 -0.000001 20.899998
v -20.900000 -0.000001 0.999999
v -20.900000 -0.100000 -1.000001
v -20.900000 -0.000000 -1.000001
v -20.899998 -0.100000 -20.900002
v -20.900000 0.000000 -20.900002
v -20.899998 -0.099999 -21.000002
v -20.899998 0.000001 -21.000000
v -20.900002 -0.100001 21.000000
v -20.900002 -0.000001 20.999998
v -21.000000 -0.100001 20.899998
v -21.000000 -0.100001 0.999998
v -21.000000 -0.000001 20.899998
v -21.000000 -0.000001 0.999999
v -21.000000 -0.100001 -1.000002
v -21.000000 -0.000001 -1.000001
v -20.999998 -0.100000 -20.900002
v -21.000000 -0.000000 -20.900002
v -20.999998 -0.100000 -21.000002
v -20.999998 0.000000 -21.000002
v -21.000000 -0.100001 20.999998
v -21.000000 -0.000001 20.999998
v 20.900000 -0.100000 1.000001
v 20.900000 -0.100000 20.900002
v 20.900002 -0.000000 1.000001
v 20.900000 -0.000000 20.900002
v 20.900002 -0.100000 -0.999999
v 20.900002 0.000000 -0.999999
v 20.900002 -0.099999 -20.900000
v 20.900002 0.000001 -20.899998
v 20.900002 -0.099999 -21.000000
v 20.900002 0.000001 -20.999998
v 20.900000 -0.100000 21.000000
v 20.900000 -0.000001 21.000002
v 21.000000 -0.100000 1.000001
v 21.000000 -0.100000 20.900002
v 21.000000 -0.000001 1.000002
v 21.000000 -0.000001 20.900002
v 21.000000 -0.100000 -0.999999
v 21.000000 -0.000000 -0.999998
v 21.000000 -0.100000 -20.899998
v 21.000002 0.000000 -20.899998
v 21.000002 -0.099999 -20.999998
v 21.000002 0.000001 -20.999998
v 21.000000 -0.100001 21.000002
v 21.000000 -0.000001 21.000002
v 1.000000 6.000000 1.000001
v -1.000000 6.000000 1.000001
v 1.000001 6.000000 -0.999999
v -0.999999 6.000000 -0.999999
v 1.000001 6.000001 -20.900000
v 20.900002 6.000001 -20.899998
v 0.999999 6.000000 20.900002
v 20.900000 6.000000 20.900002
v -20.900002 5.999999 21.000000
v -1.000001 6.000000 21.000000
v -1.000000 6.000000 20.900000
v -20.900002 6.000000 20.900000
v -0.999999 6.000001 -20.900000
v 1.000002 6.000001 -21.000000
v -0.999999 6.000001 -21.000000
v 0.999999 6.000000 21.000000
v -21.000000 5.999999 20.999998
v -21.000000 5.999999 20.899998
v -20.900000 6.000000 1.000000
v -21.000000 6.000000 -1.000001
v -20.900000 6.000000 -1.000000
v -20.900000 6.000000 -20.900002
v -21.000000 6.000000 -20.900002
v -20.899998 6.000001 -21.000000
v -21.000000 5.999999 0.999999
v -20.999998 6.000000 -21.000000
v 20.900002 6.000000 1.000002
v 21.000002 6.000001 -20.999998
v 20.900002 6.000001 -20.999998
v 20.900002 6.000000 -0.999998
v 21.000002 6.000000 -20.899998
v 20.900000 6.000000 21.000002
v 21.000000 6.000000 1.000002
v 21.000000 6.000000 20.900002
v 21.000000 6.000000 -0.999998
v 21.000000 5.999999 21.000002
v 1.000001 6.100001 -20.900000
v 20.900002 6.100001 -20.899998
v 0.999999 6.100000 20.900002
v 20.900000 6.099999 20.900002
v -20.900002 6.099999 21.000000
v -1.000001 6.100000 21.000000
v -1.000000 6.100000 20.900000
v -20.900002 6.099999 20.900000
v -0.999999 6.100001 -20.900000
v 1.000002 6.100001 -21.000000
v -0.999999 6.100001 -21.000000
v 0.999999 6.100000 21.000000
v -21.000000 6.099999 20.999998
v -21.000000 6.099999 20.899998
v -20.900000 6.099999 1.000000
v -21.000000 6.099999 -1.000001
v -20.900000 6.100000 -1.000000
v -20.900000 6.100000 -20.900002
v -21.000000 6.100000 -20.900002
v -20.899998 6.100001 -21.000000
v -21.000000 6.099999 0.999999
v -20.999998 6.100000 -21.000000
v 20.900002 6.099999 1.000002
v 21.000002 6.100001 -20.999998
v 20.900002 6.100001 -20.999998
v 20.900002 6.100000 -0.999998
v 21.000002 6.100000 -20.899998
v 20.900000 6.099999 21.000002
v 21.000000 6.099999 1.000002
v 21.000000 6.099999 20.900002
v 21.000000 6.100000 -0.999998
v 21.000000 6.099999 21.000002
v 1.000001 12.100001 -20.899998
v 20.900002 12.100001 -20.899998
v 0.999999 12.100000 20.900002
v 20.900000 12.100000 20.900002
v -20.900002 12.099999 21.000000
v -1.000001 12.100000 21.000000
v -1.000001 12.100000 20.900002
v -20.900002 12.100000 20.900000
v -0.999999 12.100001 -20.900000
v 1.000002 12.100002 -20.999998
v -0.999999 12.100002 -21.000000
v 0.999998 12.100000 21.000002
v -21.000000 12.099999 21.000000
v -21.000000 12.099999 20.900000
v -20.900000 12.100000 1.000000
v -21.000000 12.100000 -1.000000
v -20.900000 12.100000 -1.000000
v -20.900000 12.100000 -20.900000
v -21.000000 12.100000 -20.900002
v -20.899998 12.100001 -21.000000
v -21.000000 12.099999 1.000000
v -20.999998 12.100000 -21.000000
v 20.900002 12.100000 1.000003
v 21.000002 12.100001 -20.999996
v 20.900002 12.100001 -20.999998
v 20.900002 12.100000 -0.999997
v 21.000002 12.100000 -20.899998
v 20.900000 12.100000 21.000002
v 21.000000 12.100000 1.000003
v 21.000000 12.100000 20.900003
v 21.000000 12.100000 -0.999997
v 21.000000 12.099999 21.000004
v 1.000001 12.300001 -20.899998
v 20.900002 12.300001 -20.899998
v 0.999999 12.300000 20.900002
v 20.900000 12.300000 20.900002
v -20.900002 12.299999 21.000000
v -1.000001 12.300000 21.000000
v -1.000001 12.300000 20.900002
v -20.900002 12.300000 20.900000
v -1.000000 12.300001 -20.900000
v 1.000002 12.300002 -20.999998
v -0.999999 12.300002 -21.000000
v 0.999998 12.300000 21.000002
v -21.000000 12.299999 21.000000
v -21.000000 12.299999 20.900000
v -20.900000 12.300000 1.000000
v -21.000000 12.300000 -1.000000
v -20.900000 12.300000 -0.999999
v -20.900000 12.300000 -20.900000
v -21.000000 12.300000 -20.900002
v -20.899998 12.300001 -21.000000
v -21.000000 12.299999 1.000000
v -20.999998 12.300000 -21.000000
v 20.900002 12.300000 1.000003
v 21.000002 12.300001 -20.999996
v 20.900002 12.300001 -20.999998
v 20.900002 12.300000 -0.999997
v 21.000002 12.300000 -20.899998
v 20.900000 12.300000 21.000002
v 21.000000 12.300000 1.000003
v 21.000000 12.300000 20.900003
v 21.000000 12.300000 -0.999997
v 21.000000 12.299999 21.000004
v 1.000001 14.300001 -20.899998
v 20.900002 14.300001 -20.899998
v 0.999999 14.300000 20.900002
v 20.900000 14.300000 20.900003
v -20.900002 14.299999 21.000000
v -1.000001 14.300000 21.000000
v -1.000001 14.300000 20.900002
v -20.900002 14.300000 20.900000
v -1.000000 14.300001 -20.899998
v 1.000001 14.300002 -20.999998
v -0.999999 14.300002 -20.999998
v 0.999998 14.300000 21.000002
v -21.000000 14.299999 21.000000
v -21.000000 14.299999 20.900000
v -20.900000 14.300000 1.000001
v -21.000000 14.300000 -1.000000
v -20.900000 14.300000 -0.999999
v -20.900000 14.300000 -20.900000
v -21.000000 14.300000 -20.900000
v -20.899998 14.300001 -21.000000
v -21.000000 14.299999 1.000000
v -20.999998 14.300000 -21.000000
v 20.900002 14.300000 1.000003
v 21.000002 14.300001 -20.999996
v 20.900002 14.300001 -20.999996
v 20.900002 14.300000 -0.999997
v 21.000002 14.300000 -20.899998
v 20.900000 14.300000 21.000004
v 21.000000 14.300000 1.000003
v 21.000000 14.300000 20.900003
v 21.000000 14.300000 -0.999997
v 21.000000 14.299999 21.000004
v 1.000000 6.100000 1.000002
v -1.000000 6.100000 1.000001
v 1.000001 6.100000 -0.999998
v -0.999999 6.100000 -0.999999
v 1.000000 12.100000 1.000003
v -1.000000 12.100000 1.000002
v 1.000001 12.100000 -0.999997
v -0.999999 12.100000 -0.999998
v 1.000000 12.300000 1.000003
v -1.000000 12.300000 1.000002
v 1.000001 12.300000 -0.999997
v -0.999999 12.300000 -0.999998
v 1.000000 14.300000 1.000003
v -1.000000 14.300000 1.000002
v 1.000001 14.300000 -0.999997
v -0.999999 14.300000 -0.999998
vn 0.0000 -1.0000 0.0000
vn 0.0000 1.0000 0.0000
vn 1.0000 0.0000 0.0000
vn -0.0000 0.0000 -1.0000
vn -1.0000 0.0000 -0.0000
vn -0.0000 -0.0000 1.0000
usemtl Material
s off
f 1//1 2//1 3//1 4//1
f 5//2 8//2 7//2 6//2
f 63//3 66//3 107//3 105//3
f 3//1 2//1 21//1 22//1
f 8//2 12//2 30//2 28//2
f 1//1 4//1 10//1 9//1
f 4//1 3//1 25//1 26//1
f 17//4 19//4 58//4 57//4
f 12//5 8//5 74//5 76//5
f 14//1 10//1 29//1 31//1
f 51//5 52//5 80//5 99//5
f 9//1 10//1 14//1 13//1
f 12//2 11//2 15//2 16//2
f 58//4 19//4 86//4 101//4
f 19//4 17//4 18//4 20//4
f 5//2 6//2 52//2 51//2
f 32//6 16//6 85//6 94//6
f 13//1 14//1 18//1 17//1
f 21//6 23//6 24//6 22//6
f 24//6 23//6 88//6 82//6
f 18//1 14//1 31//1 33//1
f 11//2 5//2 51//2 54//2
f 31//1 29//1 41//1 43//1
f 33//1 31//1 43//1 45//1
f 29//1 26//1 38//1 41//1
f 46//5 44//5 95//5 98//5
f 30//3 32//3 94//3 93//3
f 10//1 4//1 26//1 29//1
f 64//3 63//3 105//3 106//3
f 20//4 18//4 33//4 34//4
f 3//1 22//1 35//1 25//1
f 12//2 16//2 32//2 30//2
f 22//6 24//6 36//6 35//6
f 7//2 8//2 28//2 27//2
f 37//5 39//5 40//5 38//5
f 41//5 42//5 44//5 43//5
f 38//5 40//5 42//5 41//5
f 43//5 44//5 46//5 45//5
f 39//5 37//5 47//5 48//5
f 20//4 34//4 96//4 87//4
f 35//6 36//6 48//6 47//6
f 60//6 72//6 108//6 104//6
f 34//4 33//4 45//4 46//4
f 26//1 25//1 37//1 38//1
f 25//1 35//1 47//1 37//1
f 72//3 64//3 106//3 108//3
f 55//1 57//1 69//1 67//1
f 49//1 53//1 65//1 61//1
f 6//4 7//4 83//4 79//4
f 53//1 55//1 67//1 65//1
f 28//3 30//3 93//3 91//3
f 9//1 13//1 55//1 53//1
f 21//1 2//1 50//1 59//1
f 23//6 21//6 59//6 60//6
f 15//2 11//2 54//2 56//2
f 2//1 1//1 49//1 50//1
f 1//1 9//1 53//1 49//1
f 13//1 17//1 57//1 55//1
f 61//3 63//3 64//3 62//3
f 63//3 61//3 65//3 66//3
f 66//3 65//3 67//3 68//3
f 68//3 67//3 69//3 70//3
f 62//3 64//3 72//3 71//3
f 16//6 15//6 77//6 85//6
f 34//4 46//4 98//4 96//4
f 60//6 59//6 71//6 72//6
f 44//5 42//5 92//5 95//5
f 57//4 58//4 70//4 69//4
f 50//1 49//1 61//1 62//1
f 59//1 50//1 62//1 71//1
f 11//4 12//4 76//4 75//4
f 8//6 5//6 73//6 74//6
f 5//3 11//3 75//3 73//3
f 107//3 103//3 135//3 139//3
f 90//5 89//5 121//5 122//5
f 105//3 107//3 139//3 137//3
f 98//5 95//5 127//5 130//5
f 106//3 105//3 137//3 138//3
f 89//6 81//6 113//6 121//6
f 95//5 92//5 124//5 127//5
f 88//6 104//6 136//6 120//6
f 92//5 97//5 129//5 124//5
f 101//4 86//4 118//4 133//4
f 97//5 90//5 122//5 129//5
f 82//6 88//6 120//6 114//6
f 15//6 56//6 78//6 77//6
f 70//4 58//4 101//4 100//4
f 39//5 48//5 89//5 90//5
f 23//6 60//6 104//6 88//6
f 40//5 39//5 90//5 97//5
f 52//4 6//4 79//4 80//4
f 54//5 51//5 99//5 102//5
f 19//4 20//4 87//4 86//4
f 66//3 68//3 103//3 107//3
f 48//6 36//6 81//6 89//6
f 36//6 24//6 82//6 81//6
f 68//3 70//3 100//3 103//3
f 27//3 28//3 91//3 84//3
f 42//5 40//5 97//5 92//5
f 7//4 27//4 84//4 83//4
f 56//5 54//5 102//5 78//5
f 115//4 116//4 148//4 147//4
f 140//3 138//3 170//3 172//3
f 123//3 125//3 157//3 155//3
f 128//4 130//4 162//4 160//4
f 113//6 114//6 146//6 145//6
f 135//3 132//3 164//3 167//3
f 112//4 111//4 143//4 144//4
f 139//3 135//3 167//3 171//3
f 116//3 123//3 155//3 148//3
f 122//5 121//5 153//5 154//5
f 109//6 110//6 142//6 141//6
f 137//3 139//3 171//3 169//3
f 130//5 127//5 159//5 162//5
f 138//3 137//3 169//3 170//3
f 121//6 113//6 145//6 153//6
f 127//5 124//5 156//5 159//5
f 103//3 100//3 132//3 135//3
f 81//6 82//6 114//6 113//6
f 96//4 98//4 130//4 128//4
f 108//3 106//3 138//3 140//3
f 104//6 108//6 140//6 136//6
f 100//4 101//4 133//4 132//4
f 117//2 240//2 239//2 109//2
f 76//1 85//1 77//1 75//1
f 125//2 240//2 117//2 126//2
f 86//4 87//4 119//4 118//4
f 123//2 238//2 240//2 125//2
f 87//4 96//4 128//4 119//4
f 181//2 248//2 247//2 173//2
f 150//4 151//4 183//4 182//4
f 247//2 245//2 195//2 198//2
f 189//2 248//2 181//2 190//2
f 157//1 158//1 149//1 244//1
f 164//4 165//4 197//4 196//4
f 246//2 187//2 180//2 179//2
f 168//6 172//6 204//6 200//6
f 195//2 245//2 175//2 176//2
f 147//1 242//1 241//1 143//1
f 172//3 170//3 202//3 204//3
f 187//2 246//2 248//2 189//2
f 160//4 162//4 194//4 192//4
f 145//6 146//6 178//6 177//6
f 167//3 164//3 196//3 199//3
f 163//1 241//1 243//1 166//1
f 131//5 112//5 144//5 163//5
f 136//6 140//6 172//6 168//6
f 111//4 115//4 147//4 143//4
f 132//4 133//4 165//4 164//4
f 125//3 126//3 158//3 157//3
f 117//6 109//6 141//6 149//6
f 134//5 131//5 163//5 166//5
f 118//4 119//4 151//4 150//4
f 110//5 134//5 166//5 142//5
f 119//4 128//4 160//4 151//4
f 126//6 117//6 149//6 158//6
f 114//6 120//6 152//6 146//6
f 129//5 122//5 154//5 161//5
f 133//4 118//4 150//4 165//4
f 124//5 129//5 161//5 156//5
f 120//6 136//6 168//6 152//6
f 185//6 177//6 209//6 217//6
f 191//5 188//5 220//5 223//5
f 184//6 200//6 232//6 216//6
f 188//5 193//5 225//5 220//5
f 197//4 182//4 214//4 229//4
f 193//5 186//5 218//5 225//5
f 178//6 184//6 216//6 210//6
f 190//6 181//6 213//6 222//6
f 183//4 192//4 224//4 215//4
f 174//5 198//5 230//5 206//5
f 182//4 183//4 215//4 214//4
f 198//5 195//5 227//5 230//5
f 181//6 173//6 205//6 213//6
f 189//3 190//3 222//3 221//3
f 196//4 197//4 229//4 228//4
f 175//4 179//4 211//4 207//4
f 151//4 160//4 192//4 183//4
f 149//1 141//1 243//1 244//1
f 146//6 152//6 184//6 178//6
f 161//5 154//5 186//5 193//5
f 165//4 150//4 182//4 197//4
f 156//5 161//5 193//5 188//5
f 152//6 168//6 200//6 184//6
f 159//5 156//5 188//5 191//5
f 153//6 145//6 177//6 185//6
f 170//3 169//3 201//3 202//3
f 162//5 159//5 191//5 194//5
f 169//3 171//3 203//3 201//3
f 141//1 142//1 166//1 243//1
f 154//5 153//5 185//5 186//5
f 147//1 148//1 155//1 242//1
f 171//3 167//3 199//3 203//3
f 207//2 216//2 232//2 208//2
f 213//2 205//2 214//2 215//2
f 214//2 205//2 206//2 229//2
f 210//2 211//2 212//2 209//2
f 207//2 211//2 210//2 216//2
f 209//2 212//2 218//2 217//2
f 221//2 222//2 223//2 220//2
f 213//2 215//2 224//2 222//2
f 219//2 221//2 220//2 225//2
f 212//2 219//2 225//2 218//2
f 222//2 224//2 226//2 223//2
f 208//2 232//2 236//2 234//2
f 229//2 206//2 231//2 228//2
f 206//2 230//2 235//2 231//2
f 230//2 227//2 233//2 235//2
f 227//2 208//2 234//2 233//2
f 202//3 201//3 233//3 234//3
f 194//5 191//5 223//5 226//5
f 201//3 203//3 235//3 233//3
f 173//6 174//6 206//6 205//6
f 186//5 185//5 217//5 218//5
f 180//3 187//3 219//3 212//3
f 203//3 199//3 231//3 235//3
f 176//4 175//4 207//4 208//4
f 199//3 196//3 228//3 231//3
f 177//6 178//6 210//6 209//6
f 192//4 194//4 226//4 224//4
f 187//3 189//3 221//3 219//3
f 204//3 202//3 234//3 236//3
f 179//4 180//4 212//4 211//4
f 195//5 176//5 208//5 227//5
f 200//6 204//6 236//6 232//6
f 237//3 239//3 243//3 241//3
f 80//1 79//1 73//1 99//1
f 74//1 91//1 93//1 76//1
f 93//1 94//1 85//1 76//1
f 246//2 179//2 175//2 245//2
f 238//6 237//6 241//6 242//6
f 240//5 238//5 242//5 244//5
f 239//4 240//4 244//4 243//4
f 248//5 246//5 250//5 252//5
f 155//1 157//1 244//1 242//1
f 198//2 174//2 173//2 247//2
f 144//1 143//1 241//1 163//1
f 250//2 249//2 251//2 252//2
f 247//4 248//4 252//4 251//4
f 245//3 247//3 251//3 249//3
f 246//6 245//6 249//6 250//6
f 77//1 78//1 102//1 75//1
f 109//2 239//2 134//2 110//2
f 73//1 75//1 102//1 99//1
f 131//2 134//2 239//2 237//2
f 111//2 112//2 131//2 237//2
f 74//1 73//1 79//1 83//1
f 115//2 111//2 237//2 238//2
f 84//1 91//1 74//1 83//1
f 115//2 238//2 123//2 116//2
