# Blender v2.78 (sub 0) OBJ File: 'elevator.blend'
# www.blender.org
mtllib elevator.mtl
o Cube
v 1.000000 -0.100000 1.000000
v -1.000000 -0.100000 1.000000
v 1.000000 -0.000000 1.000000
v -1.000000 -0.000000 1.000000
v 1.000000 -0.100000 -1.000000
v -0.999999 -0.100000 -1.000000
v 1.000001 0.000000 -1.000000
v -0.999999 0.000000 -1.000000
v 1.000000 6.000000 1.000001
v -1.000000 6.000000 1.000001
v 1.000001 6.000000 -0.999999
v -0.999999 6.000000 -0.999999
v 1.000000 6.100000 1.000002
v -1.000000 6.100000 1.000001
v 1.000001 6.100000 -0.999998
v -0.999999 6.100000 -0.999999
v 1.000000 12.100000 1.000003
v -1.000000 12.100000 1.000002
v 1.000001 12.100000 -0.999997
v -0.999999 12.100000 -0.999998
v 1.000000 12.200000 1.000003
v -1.000000 12.200000 1.000002
v 1.000001 12.200000 -0.999997
v -0.999999 12.200000 -0.999998
v 1.000000 14.200000 1.000003
v -1.000000 14.200000 1.000002
v 1.000001 14.200000 -0.999997
v -0.999999 14.200000 -0.999998
vn 1.0000 0.0000 0.0000
vn -1.0000 0.0000 -0.0000
vn 0.0000 -1.0000 -0.0000
vn 0.0000 1.0000 0.0000
vn -0.0000 -0.0000 1.0000
vn 0.0000 0.0000 -1.0000
usemtl Blue
s off
f 13//1 15//1 19//1 17//1
f 16//2 14//2 18//2 20//2
usemtl Green
f 1//3 2//3 6//3 5//3
f 8//2 4//2 10//2 12//2
f 3//1 7//1 11//1 9//1
usemtl Red
f 24//2 22//2 26//2 28//2
f 26//4 25//4 27//4 28//4
f 21//1 23//1 27//1 25//1
usemtl White
f 4//5 3//5 9//5 10//5
f 15//6 16//6 20//6 19//6
f 22//5 21//5 25//5 26//5
usemtl Black
f 7//6 8//6 12//6 11//6
f 14//5 13//5 17//5 18//5
f 23//6 24//6 28//6 27//6
