# Blender v2.78 (sub 0) OBJ File: 'elevator.blend'
# www.blender.org
mtllib elevator.mtl
o Cube
v 1.000000 -0.100000 1.000000
v -1.000000 -0.100000 1.000000
v 1.000000 -0.000000 1.000000
v -1.000000 -0.000000 1.000000
v 1.000000 -0.100000 -1.000000
v -0.999999 -0.100000 -1.000000
v 1.000001 0.000000 -1.000000
v -0.999999 0.000000 -1.000000
v -0.999999 -0.099999 -20.900002
v -21.000000 -0.000001 -1.000001
v 21.000002 0.000000 -20.899998
v 1.000000 6.000000 1.000001
v -1.000000 6.000000 1.000001
v 1.000001 6.000000 -0.999999
v -0.999999 6.000000 -0.999999
v 21.000000 5.999999 21.000002
v -1.000001 12.100000 21.000000
v 21.000002 12.100001 -20.999996
v -21.000000 12.299999 21.000000
v -21.000000 12.300000 -20.900002
v -20.899998 12.300001 -21.000000
v -21.000000 14.299999 21.000000
v 1.000000 6.100000 1.000002
v -1.000000 6.100000 1.000001
v 1.000001 6.100000 -0.999998
v -0.999999 6.100000 -0.999999
v 1.000000 12.100000 1.000003
v -1.000000 12.100000 1.000002
v 1.000001 12.100000 -0.999997
v -0.999999 12.100000 -0.999998
v 1.000000 12.300000 1.000003
v -1.000000 12.300000 1.000002
v 1.000001 12.300000 -0.999997
v -0.999999 12.300000 -0.999998
v 1.000000 14.300000 1.000003
v -1.000000 14.300000 1.000002
v 1.000001 14.300000 -0.999997
v -0.999999 14.300000 -0.999998
vn 1.0000 0.0000 0.0000
vn -1.0000 0.0000 -0.0000
vn 0.0000 -1.0000 -0.0000
vn 0.0000 1.0000 0.0000
vn -0.0000 -0.0000 1.0000
vn 0.0000 0.0000 -1.0000
usemtl Blue
s off
f 23//1 25//1 29//1 27//1
f 26//2 24//2 28//2 30//2
usemtl Green
f 1//3 2//3 6//3 5//3
f 8//2 4//2 13//2 15//2
f 3//1 7//1 14//1 12//1
usemtl Red
f 34//2 32//2 36//2 38//2
f 36//4 35//4 37//4 38//4
f 31//1 33//1 37//1 35//1
usemtl White
f 4//5 3//5 12//5 13//5
f 25//6 26//6 30//6 29//6
f 32//5 31//5 35//5 36//5
usemtl Black
f 7//6 8//6 15//6 14//6
f 24//5 23//5 27//5 28//5
f 33//6 34//6 38//6 37//6
